<?xml version="1.0" encoding="UTF-8"?>
<svg width="180px" height="180px" viewBox="0 0 180 180" version="1.1" xmlns="http://www.w3.org/2000/svg" xmlns:xlink="http://www.w3.org/1999/xlink">
    <!-- Generator: Sketch 52.4 (67378) - http://www.bohemiancoding.com/sketch -->
    <title>arrow.up.right.square.fill</title>
    <desc>Created with Sketch.</desc>
    <g id="Website4" stroke="none" stroke-width="1" fill="none" fill-rule="evenodd">
        <g id="arrow.up.right.square.fill">
            <rect id="Rectangle" fill="#000000" opacity="0" x="0" y="0" width="179.785" height="179.98"></rect>
            <path d="M30.6641,179.98 L149.121,179.98 C169.629,179.98 179.785,169.824 179.785,149.707 L179.785,30.4688 C179.785,10.3516 169.629,0.195312 149.121,0.195312 L30.6641,0.195312 C10.2539,0.195312 0,10.2539 0,30.4688 L0,149.707 C0,169.922 10.2539,179.98 30.6641,179.98 Z" id="Path" fill="#007AFF"></path>
            <path d="M121.484,114.941 C116.992,114.941 114.062,111.816 114.062,107.031 L114.062,89.7461 L115.527,74.0234 L100.977,89.5508 L64.1602,126.465 C62.6953,127.93 60.7422,128.809 58.3008,128.809 C53.9062,128.809 50.9766,125.879 50.9766,121.289 C50.9766,119.336 51.8555,117.285 53.3203,115.82 L90.332,78.9062 L106.055,64.2578 L91.1133,65.8203 L72.9492,65.8203 C68.0664,65.8203 64.9414,62.8906 64.9414,58.4961 C64.9414,54.0039 67.9688,51.0742 72.7539,51.0742 L120.41,51.0742 C125.586,51.0742 128.906,53.418 128.906,59.375 L128.906,106.836 C128.906,111.523 125.879,114.941 121.484,114.941 Z" id="Path" fill="#FFFFFF"></path>
        </g>
    </g>
</svg>