<?xml version="1.0" encoding="UTF-8"?>
<svg width="205px" height="205px" viewBox="0 0 205 205" version="1.1" xmlns="http://www.w3.org/2000/svg" xmlns:xlink="http://www.w3.org/1999/xlink">
    <!-- Generator: Sketch 52.4 (67378) - http://www.bohemiancoding.com/sketch -->
    <title>Shape</title>
    <desc>Created with Sketch.</desc>
    <g id="Website4" stroke="none" stroke-width="1" fill="none" fill-rule="evenodd">
        <g id="gearshape.fill" fill="#0087F3" fill-rule="nonzero">
            <path d="M93.0664,204.102 L111.035,204.102 C116.113,204.102 119.824,201.074 120.898,196.094 L125.977,174.609 C129.785,173.34 133.496,171.875 136.719,170.312 L155.566,181.836 C159.766,184.473 164.551,184.082 168.066,180.566 L180.664,168.066 C184.18,164.551 184.668,159.473 181.836,155.273 L170.312,136.621 C171.973,133.203 173.438,129.688 174.512,126.172 L196.191,120.996 C201.172,119.922 204.102,116.211 204.102,111.133 L204.102,93.457 C204.102,88.4766 201.172,84.7656 196.191,83.6914 L174.707,78.5156 C173.438,74.5117 171.875,70.8984 170.508,67.8711 L182.031,48.9258 C184.766,44.7266 184.473,39.9414 180.859,36.4258 L168.066,23.8281 C164.453,20.5078 160.156,19.9219 155.859,22.3633 L136.719,34.1797 C133.594,32.5195 129.98,31.0547 125.977,29.7852 L120.898,8.00781 C119.824,3.02734 116.113,0 111.035,0 L93.0664,0 C87.9883,0 84.2773,3.02734 83.1055,8.00781 L78.0273,29.5898 C74.2188,30.8594 70.5078,32.3242 67.1875,34.082 L48.2422,22.3633 C43.9453,19.9219 39.5508,20.4102 35.9375,23.8281 L23.2422,36.4258 C19.6289,39.9414 19.2383,44.7266 22.0703,48.9258 L33.4961,67.8711 C32.2266,70.8984 30.6641,74.5117 29.3945,78.5156 L7.91016,83.6914 C2.92969,84.7656 0,88.4766 0,93.457 L0,111.133 C0,116.211 2.92969,119.922 7.91016,120.996 L29.5898,126.172 C30.6641,129.688 32.1289,133.203 33.6914,136.621 L22.2656,155.273 C19.3359,159.473 19.9219,164.551 23.4375,168.066 L35.9375,180.566 C39.4531,184.082 44.3359,184.473 48.5352,181.836 L67.2852,170.312 C70.6055,171.875 74.2188,173.34 78.0273,174.609 L83.1055,196.094 C84.2773,201.074 87.9883,204.102 93.0664,204.102 Z M102.051,136.523 C83.1055,136.523 67.5781,120.898 67.5781,101.953 C67.5781,83.1055 83.1055,67.5781 102.051,67.5781 C120.996,67.5781 136.523,83.1055 136.523,101.953 C136.523,120.898 120.996,136.523 102.051,136.523 Z" id="Shape"></path>
        </g>
    </g>
</svg>