<?xml version="1.0" encoding="UTF-8"?>
<svg width="200px" height="215px" viewBox="0 0 200 215" version="1.1" xmlns="http://www.w3.org/2000/svg" xmlns:xlink="http://www.w3.org/1999/xlink">
    <!-- Generator: Sketch 52.4 (67378) - http://www.bohemiancoding.com/sketch -->
    <title>lightbulb.2.fill</title>
    <desc>Created with Sketch.</desc>
    <g id="Website4" stroke="none" stroke-width="1" fill="none" fill-rule="evenodd">
        <g id="lightbulb.2.fill" transform="translate(-11.000000, -11.000000)">
            <rect id="Rectangle" fill="#000000" opacity="0" x="0" y="0" width="221.973" height="237.402"></rect>
            <path d="M65.0391,214.258 C51.9531,214.258 41.0156,207.324 40.918,197.363 L89.1602,197.363 C88.9648,207.324 77.832,214.258 65.0391,214.258 Z M95.5078,184.375 C95.5078,187.5 92.9688,189.844 89.9414,189.844 L39.9414,189.844 C36.9141,189.844 34.4727,187.402 34.4727,184.375 C34.4727,181.25 36.9141,178.809 39.9414,178.809 L89.9414,178.809 C92.9688,178.809 95.5078,181.152 95.5078,184.375 Z M87.8343,30.617 C80.2572,41.3648 75.8789,54.339 75.8789,68.457 C75.8789,102.735 89.7366,115.421 98.0325,146.565 C96.8769,152.217 95.9147,158.631 95.2148,165.918 C94.9219,169.043 93.0664,171.289 89.6484,171.289 L40.1367,171.289 C36.7188,171.289 34.8633,169.043 34.5703,165.918 C29.5898,114.062 11.3281,106.445 11.3281,75.5859 C11.3281,47.7539 35.0586,25.8789 64.8438,25.8789 C73.1132,25.8789 80.9114,27.5541 87.8343,30.617 Z" id="Shape" fill-opacity="0.5" fill="#32D74B" fill-rule="nonzero"></path>
            <path d="M148.926,11.4258 C114.355,11.4258 87.207,36.5234 87.207,68.457 C87.207,103.809 108.398,112.598 114.258,173.633 C114.648,177.051 116.406,179.199 120.117,179.199 L177.734,179.199 C181.348,179.199 183.203,177.051 183.496,173.633 C189.355,112.598 210.645,103.809 210.645,68.457 C210.645,36.5234 183.398,11.4258 148.926,11.4258 Z M119.824,199.121 L178.027,199.121 C181.25,199.121 183.691,196.777 183.691,193.555 C183.691,190.332 181.25,187.988 178.027,187.988 L119.824,187.988 C116.602,187.988 114.258,190.332 114.258,193.555 C114.258,196.777 116.602,199.121 119.824,199.121 Z M148.926,225.879 C163.281,225.879 175.488,218.652 176.172,207.91 L121.68,207.91 C122.266,218.652 134.473,225.879 148.926,225.879 Z" id="Shape" fill="#32D74B" fill-rule="nonzero"></path>
        </g>
    </g>
</svg>