<?xml version="1.0" encoding="UTF-8"?>
<svg width="165px" height="210px" viewBox="0 0 165 210" version="1.1" xmlns="http://www.w3.org/2000/svg" xmlns:xlink="http://www.w3.org/1999/xlink">
    <!-- Generator: Sketch 52.4 (67378) - http://www.bohemiancoding.com/sketch -->
    <title>text.book.closed.fill</title>
    <desc>Created with Sketch.</desc>
    <g id="Website4" stroke="none" stroke-width="1" fill="none" fill-rule="evenodd">
        <g id="text.book.closed.fill">
            <rect id="Rectangle" fill="#000000" opacity="0" x="0" y="0" width="164.258" height="209.277"></rect>
            <path d="M58.3984,62.4023 C54.7852,62.4023 51.7578,59.375 51.7578,55.7617 C51.7578,52.0508 54.7852,49.1211 58.3984,49.1211 L133.789,49.1211 C137.402,49.1211 140.43,52.0508 140.43,55.7617 C140.43,59.375 137.402,62.4023 133.789,62.4023 L58.3984,62.4023 Z M58.3984,90.1367 C54.7852,90.1367 51.7578,87.1094 51.7578,83.3984 C51.7578,79.7852 54.7852,76.8555 58.3984,76.8555 L115.625,76.8555 C119.336,76.8555 122.266,79.7852 122.266,83.3984 C122.266,87.1094 119.336,90.1367 115.625,90.1367 L58.3984,90.1367 Z M29.9805,209.277 L156.445,209.277 C160.742,209.277 164.258,205.859 164.258,201.465 C164.258,198.047 161.914,195.02 158.789,193.945 C146.484,189.062 143.945,173.145 156.055,160.938 C159.766,157.227 164.258,152.441 164.258,142.676 L164.258,30.6641 C164.258,10.3516 154.199,0 133.984,0 L30.2734,0 C10.0586,0 0,10.2539 0,30.6641 L0,179.102 C0,199.219 10.1562,209.277 29.9805,209.277 Z M30.8594,193.555 C20.9961,193.555 15.7227,188.281 15.7227,179.004 C15.7227,170.215 21.9727,164.551 31.7383,164.551 L131.934,164.551 C133.203,164.551 134.375,164.453 135.352,164.258 C130.762,174.414 131.543,185.156 136.719,193.555 L30.8594,193.555 Z M27.9297,149.707 C24.9023,149.707 22.3633,147.168 22.3633,144.043 L22.3633,20.7031 C22.3633,17.5781 24.9023,15.1367 27.9297,15.1367 C30.957,15.1367 33.5938,17.5781 33.5938,20.7031 L33.5938,144.043 C33.5938,147.168 30.957,149.707 27.9297,149.707 Z" id="Shape" fill="#0A84FF" fill-rule="nonzero"></path>
        </g>
    </g>
</svg>