<!-- Generator: Adobe Illustrator 21.1.0, SVG Export Plug-In  -->
<svg version="1.1"
	 xmlns="http://www.w3.org/2000/svg" xmlns:xlink="http://www.w3.org/1999/xlink" xmlns:a="http://ns.adobe.com/AdobeSVGViewerExtensions/3.0/"
	 x="0px" y="0px" width="29.295px" height="50.7px" viewBox="0 0 29.295 50.7" style="enable-background:new 0 0 29.295 50.7;"
	 xml:space="preserve">
<style type="text/css">
	.st0{fill:none;stroke:#FFFFFF;stroke-width:0.8;stroke-miterlimit:10;}
</style>
<defs>
</defs>
<path class="st0" d="M27.526,3.2c-3.5-2.3-9.3-2.8-12.9-2.8s-9.4,0.5-12.9,2.8s0.9,9.5,2.1,12.5c2.5,7.3,3.7,20.5,3.7,20.5l1.7,2.1
	v8.1c0,1,1.3,1.6,2.3,1.9c0.2,0.4,0.7,1.1,1.3,1.8c0.4,0.1,1.1,0.2,1.8,0.2c0.7,0,1.4-0.1,1.8-0.2c0.6-0.8,1.1-1.4,1.3-1.8
	c1-0.3,2.3-0.9,2.3-1.9v-8.1l1.7-2.1c0,0,1.2-13.2,3.7-20.5C26.626,12.7,31.126,5.5,27.526,3.2z M9.226,38.4h10.9 M3.526,15
	c2.9,1.5,16.7,2.2,22.3-0.2 M20.726,40l-6.3,0.8h-0.1l-5.9,0.7 M20.826,42.1l-6.2,0.8l0,0l-5.9,0.7 M20.726,44.2l-6.3,0.8h-0.1
	l-5.9,0.7"/>
</svg>