<!-- Generator: Adobe Illustrator 21.1.0, SVG Export Plug-In  -->
<svg version="1.1"
	 xmlns="http://www.w3.org/2000/svg" xmlns:xlink="http://www.w3.org/1999/xlink" xmlns:a="http://ns.adobe.com/AdobeSVGViewerExtensions/3.0/"
	 x="0px" y="0px" width="558.425px" height="167.487px" viewBox="0 0 558.425 167.487"
	 style="enable-background:new 0 0 558.425 167.487;" xml:space="preserve">
<style type="text/css">
	.st0{fill:#FFFFFF;}
</style>
<defs>
</defs>
<g>
	<g>
		<g>
			<path class="st0" d="M83.743,0C37.494,0,0,37.493,0,83.742c0,46.254,37.494,83.745,83.743,83.745
				c46.251,0,83.743-37.491,83.743-83.745C167.487,37.493,129.994,0,83.743,0z M122.149,120.787
				c-1.505,2.467-4.718,3.24-7.177,1.737c-19.665-12.019-44.417-14.734-73.567-8.075c-2.809,0.644-5.609-1.117-6.249-3.925
				c-0.643-2.809,1.11-5.609,3.926-6.249c31.9-7.293,59.263-4.154,81.336,9.334C122.878,115.112,123.653,118.327,122.149,120.787z
				 M132.396,97.984c-1.894,3.073-5.912,4.037-8.981,2.15c-22.505-13.834-56.822-17.841-83.447-9.759
				c-3.453,1.043-7.1-0.903-8.148-4.35c-1.04-3.453,0.907-7.093,4.354-8.143c30.415-9.229,68.226-4.759,94.074,11.125
				C133.317,90.898,134.283,94.918,132.396,97.984z M133.28,74.24c-26.994-16.031-71.52-17.505-97.289-9.684
				c-4.138,1.255-8.514-1.081-9.768-5.219c-1.254-4.14,1.08-8.513,5.221-9.771c29.581-8.98,78.756-7.245,109.832,11.202
				c3.722,2.209,4.943,7.016,2.737,10.733C141.804,75.223,136.993,76.45,133.28,74.24z"/>
		</g>
	</g>
	<g>
		<g>
			<path class="st0" d="M227.836,77.309c-14.459-3.448-17.034-5.868-17.034-10.953c0-4.804,4.523-8.037,11.249-8.037
				c6.52,0,12.985,2.455,19.763,7.509c0.205,0.153,0.462,0.214,0.715,0.174c0.253-0.038,0.477-0.177,0.625-0.386l7.06-9.952
				c0.29-0.41,0.211-0.975-0.18-1.288c-8.067-6.473-17.151-9.62-27.769-9.62c-15.612,0-26.517,9.369-26.517,22.774
				c0,14.375,9.407,19.465,25.663,23.394c13.836,3.187,16.171,5.857,16.171,10.63c0,5.289-4.722,8.577-12.321,8.577
				c-8.44,0-15.324-2.843-23.025-9.512c-0.191-0.165-0.453-0.24-0.695-0.226c-0.255,0.021-0.488,0.139-0.65,0.334l-7.916,9.421
				c-0.332,0.391-0.29,0.975,0.094,1.313c8.96,7.999,19.98,12.224,31.872,12.224c16.823,0,27.694-9.192,27.694-23.419
				C252.637,88.244,245.453,81.594,227.836,77.309z"/>
			<path class="st0" d="M290.698,63.049c-7.292,0-13.273,2.872-18.205,8.757v-6.624c0-0.523-0.424-0.949-0.946-0.949h-12.947
				c-0.523,0-0.946,0.426-0.946,0.949v73.602c0,0.523,0.423,0.949,0.946,0.949h12.947c0.522,0,0.946-0.426,0.946-0.949v-23.233
				c4.933,5.536,10.915,8.241,18.205,8.241c13.549,0,27.265-10.43,27.265-30.368C317.963,73.482,304.247,63.049,290.698,63.049z
				 M302.91,93.424c0,10.153-6.254,17.238-15.209,17.238c-8.853,0-15.531-7.407-15.531-17.238c0-9.83,6.678-17.238,15.531-17.238
				C296.511,76.187,302.91,83.434,302.91,93.424z"/>
			<path class="st0" d="M353.121,63.049c-17.449,0-31.119,13.436-31.119,30.592c0,16.969,13.576,30.264,30.905,30.264
				c17.511,0,31.223-13.391,31.223-30.481C384.129,76.391,370.512,63.049,353.121,63.049z M353.121,110.768
				c-9.281,0-16.278-7.457-16.278-17.344c0-9.929,6.755-17.134,16.064-17.134c9.341,0,16.385,7.457,16.385,17.351
				C369.292,103.568,362.491,110.768,353.121,110.768z"/>
			<path class="st0" d="M421.391,64.234h-14.247V49.667c0-0.522-0.422-0.948-0.945-0.948h-12.945c-0.524,0-0.949,0.426-0.949,0.948
				v14.566h-6.225c-0.521,0-0.943,0.426-0.943,0.949v11.127c0,0.522,0.422,0.949,0.943,0.949h6.225v28.791
				c0,11.635,5.791,17.534,17.212,17.534c4.644,0,8.497-0.959,12.128-3.018c0.295-0.165,0.478-0.483,0.478-0.821v-10.596
				c0-0.327-0.17-0.636-0.45-0.807c-0.282-0.177-0.633-0.186-0.922-0.043c-2.494,1.255-4.905,1.834-7.6,1.834
				c-4.154,0-6.007-1.886-6.007-6.113V77.258h14.247c0.523,0,0.945-0.426,0.945-0.949V65.182
				C422.336,64.66,421.914,64.234,421.391,64.234z"/>
			<path class="st0" d="M471.029,64.29v-1.789c0-5.263,2.018-7.61,6.544-7.61c2.699,0,4.867,0.536,7.295,1.346
				c0.299,0.094,0.611,0.047,0.854-0.132c0.25-0.179,0.391-0.466,0.391-0.77v-10.91c0-0.417-0.268-0.786-0.67-0.909
				c-2.565-0.763-5.847-1.546-10.761-1.546c-11.958,0-18.279,6.734-18.279,19.467v2.74h-6.22c-0.522,0-0.95,0.426-0.95,0.948v11.184
				c0,0.522,0.428,0.949,0.95,0.949h6.22v44.409c0,0.523,0.422,0.949,0.944,0.949h12.947c0.523,0,0.949-0.426,0.949-0.949V77.258
				h12.088l18.517,44.398c-2.102,4.665-4.169,5.593-6.991,5.593c-2.281,0-4.683-0.681-7.139-2.025
				c-0.231-0.127-0.505-0.148-0.754-0.071c-0.247,0.087-0.455,0.271-0.56,0.511l-4.388,9.627c-0.209,0.455-0.03,0.989,0.408,1.225
				c4.581,2.481,8.716,3.54,13.827,3.54c9.56,0,14.844-4.453,19.502-16.433l22.461-58.04c0.113-0.292,0.079-0.622-0.1-0.881
				c-0.178-0.257-0.465-0.412-0.779-0.412h-13.478c-0.404,0-0.765,0.257-0.897,0.636l-13.807,39.438L494.03,64.9
				c-0.138-0.367-0.492-0.61-0.884-0.61H471.029z"/>
			<path class="st0" d="M442.252,64.234h-12.947c-0.523,0-0.949,0.426-0.949,0.949v56.485c0,0.523,0.426,0.949,0.949,0.949h12.947
				c0.522,0,0.949-0.426,0.949-0.949V65.182C443.201,64.66,442.775,64.234,442.252,64.234z"/>
			<ellipse class="st0" cx="435.843" cy="47.798" rx="9.288" ry="9.285"/>
		</g>
		<g>
			<path class="st0" d="M549.267,82.394c-5.124,0-9.111-4.115-9.111-9.112c0-4.997,4.039-9.159,9.159-9.159
				c5.124,0,9.111,4.114,9.111,9.107C558.425,78.228,554.389,82.394,549.267,82.394z M549.314,65.029
				c-4.667,0-8.198,3.71-8.198,8.253c0,4.541,3.506,8.201,8.151,8.201c4.666,0,8.201-3.707,8.201-8.253
				C557.468,68.689,553.959,65.029,549.314,65.029z M551.334,74.167l2.577,3.608h-2.173l-2.32-3.31h-1.995v3.31h-1.819v-9.564h4.265
				c2.222,0,3.683,1.137,3.683,3.051C553.554,72.83,552.648,73.788,551.334,74.167z M549.797,69.852h-2.372v3.025h2.372
				c1.184,0,1.891-0.579,1.891-1.514C551.688,70.38,550.981,69.852,549.797,69.852z"/>
		</g>
	</g>
</g>
</svg>