<!-- Generator: Adobe Illustrator 21.1.0, SVG Export Plug-In  -->
<svg version="1.1"
	 xmlns="http://www.w3.org/2000/svg" xmlns:xlink="http://www.w3.org/1999/xlink" xmlns:a="http://ns.adobe.com/AdobeSVGViewerExtensions/3.0/"
	 x="0px" y="0px" width="28.3px" height="50.8px" viewBox="0 0 28.3 50.8" style="enable-background:new 0 0 28.3 50.8;"
	 xml:space="preserve">
<style type="text/css">
	.st0{fill:none;stroke:#FFFFFF;stroke-width:0.8;stroke-miterlimit:10;}
</style>
<defs>
</defs>
<path class="st0" d="M27.9,12.5c0-8.8-6.6-12.1-13.3-12.1S0.4,3.7,0.4,12.5c0,10.1,5.6,11.7,6.5,16.3l0.7,7.7l1.6,2.1v8
	c0,0.9,1.3,1.6,2.3,1.8c0.2,0.4,0.7,1.1,1.3,1.8c0.4,0.1,1.1,0.2,1.8,0.2c0.7,0,1.4-0.1,1.8-0.2c0.6-0.7,1.1-1.4,1.3-1.8
	c1-0.3,2.3-0.9,2.3-1.8v-8l1.6-2.1c0,0,0.4-4.4,0.7-7.7C23.7,22.5,27.9,22.4,27.9,12.5z"/>
<line class="st0" x1="9.4" y1="38.5" x2="20" y2="38.5"/>
<path class="st0" d="M1.4,18.7c5.9,0.8,20.2,0.8,25.8,0"/>
<polyline class="st0" points="20.6,40.2 14.5,40.9 14.5,41 8.7,41.7 "/>
<polyline class="st0" points="20.7,42.2 14.6,43 14.6,43 8.8,43.7 "/>
<polyline class="st0" points="20.6,44.2 14.5,45 14.5,45 8.7,45.7 "/>
</svg>