<?xml version="1.0" encoding="UTF-8"?>
<svg width="147px" height="27px" viewBox="0 0 147 27" version="1.1" xmlns="http://www.w3.org/2000/svg" xmlns:xlink="http://www.w3.org/1999/xlink">
    <!-- Generator: Sketch 52.4 (67378) - http://www.bohemiancoding.com/sketch -->
    <title>Deezer_Logo_RVB_Black</title>
    <desc>Created with Sketch.</desc>
    <defs>
        <linearGradient x1="56.5051046%" y1="113.112491%" x2="43.496909%" y2="-13.1815045%" id="linearGradient-1">
            <stop stop-color="#2C8C9D" offset="0%"></stop>
            <stop stop-color="#298E9A" offset="4%"></stop>
            <stop stop-color="#129C83" offset="39%"></stop>
            <stop stop-color="#05A475" offset="72%"></stop>
            <stop stop-color="#00A770" offset="100%"></stop>
        </linearGradient>
        <linearGradient x1="-1.4901029%" y1="94.9620428%" x2="101.490103%" y2="5.03795721%" id="linearGradient-2">
            <stop stop-color="#2839BA" offset="0%"></stop>
            <stop stop-color="#148CB3" offset="100%"></stop>
        </linearGradient>
        <linearGradient x1="0%" y1="49.9654934%" x2="100%" y2="49.9654934%" id="linearGradient-3">
            <stop stop-color="#F6A500" offset="0%"></stop>
            <stop stop-color="#F29100" offset="100%"></stop>
        </linearGradient>
        <linearGradient x1="0%" y1="49.9654934%" x2="100%" y2="49.9654934%" id="linearGradient-4">
            <stop stop-color="#F29100" offset="0%"></stop>
            <stop stop-color="#D12F5F" offset="100%"></stop>
        </linearGradient>
        <linearGradient x1="0%" y1="49.9654934%" x2="100%" y2="49.9654934%" id="linearGradient-5">
            <stop stop-color="#B4197C" offset="0%"></stop>
            <stop stop-color="#472EAD" offset="100%"></stop>
        </linearGradient>
        <linearGradient x1="0%" y1="49.9654934%" x2="100%" y2="49.9654934%" id="linearGradient-6">
            <stop stop-color="#2839BA" offset="0%"></stop>
            <stop stop-color="#3072B7" offset="100%"></stop>
        </linearGradient>
        <linearGradient x1="-3.9468385%" y1="77.0186335%" x2="103.906565%" y2="22.9813665%" id="linearGradient-7">
            <stop stop-color="#B4197C" offset="0%"></stop>
            <stop stop-color="#373AAC" offset="100%"></stop>
        </linearGradient>
        <linearGradient x1="-3.50382602%" y1="16.6321601%" x2="103.5441%" y2="83.3678399%" id="linearGradient-8">
            <stop stop-color="#FFCB00" offset="0%"></stop>
            <stop stop-color="#D12F5F" offset="100%"></stop>
        </linearGradient>
        <linearGradient x1="8.45751108%" y1="-15.7349896%" x2="91.5424889%" y2="115.665977%" id="linearGradient-9">
            <stop stop-color="#FFCF00" offset="0%"></stop>
            <stop stop-color="#ED743B" offset="100%"></stop>
        </linearGradient>
    </defs>
    <g id="Website3" stroke="none" stroke-width="1" fill="none" fill-rule="evenodd">
        <g id="11″-iPad-Pro" transform="translate(-929.000000, -1818.000000)">
            <g id="Deezer_Logo_RVB_Black" transform="translate(929.000000, 1818.000000)">
                <path d="M85.1660423,22.7685771 C82.4281509,22.7685771 80.1758095,21.1921261 80.1351351,18.4230133 L93.1000803,18.4230133 C93.2698956,17.6908745 93.3553117,16.9430926 93.3542949,16.1931731 C93.3542949,11.1917668 89.772411,8 84.5,8 C78.8640621,8 75,12.1925096 75,17.3833815 C75,23.1523664 79.1869146,27 85.1024886,27 C89.5715815,27 92.6704576,24.8454359 94,21.3063155 L89.5944608,19.6618512 C88.98943,21.7313986 87.4997324,22.7685771 85.1660423,22.7685771 Z M84.482205,11.9617745 C86.7701365,11.9617745 88.3462671,13.1544362 88.3462671,15.0005114 L88.3055927,15.1535413 L80.1351351,15.1535413 C80.6181429,13.1544362 82.3900187,11.9617745 84.482205,11.9617745 Z" id="Shape" fill="#FFFFFF" fill-rule="nonzero"></path>
                <polygon id="Path" fill="#FFFFFF" points="110.721558 12.988541 110.721558 9 94.3185775 9 94.3185775 13.1780147 104.327431 13.1780147 94 22.8243837 94 27 111 27 111 22.6325117 100.353991 22.6325117"></polygon>
                <path d="M142.079151,14.0658049 C142.080655,14.3621387 142.059599,14.6582139 142.016485,14.9518214 L146.831717,14.9518214 C146.948777,14.3779083 147.004925,13.7945946 146.999662,13.2103408 C146.999662,10.1950646 144.976813,8 141.602892,8 C139.419619,8 137.873029,9.00585194 137.078428,10.6415746 L137.078428,8.37367803 L132,8.37367803 L132,26 L137.078428,26 L137.078428,14.6603995 C137.078428,12.8742656 138.111159,11.8707403 139.697854,11.8707403 C141.126632,11.8707403 142.079151,12.7638073 142.079151,14.0658049 Z" id="Path" fill="#FFFFFF"></path>
                <path d="M48.9121045,11.2952322 C47.7569061,9.43150685 45.6097438,8.21384095 42.9477649,8.21384095 C37.7769965,8.21384095 34,12.0181462 34,17.6837751 C34,23.2725494 37.739327,27 43.0657961,27 C45.7302863,27 47.8774485,25.8952144 49.1104972,24.0338908 L49.1104972,26.6181284 L54,26.6181284 L54,0 L48.9121045,0 L48.9121045,11.2952322 Z M44.0979407,22.8666607 C41.2752386,22.8666607 39.075339,20.8900552 39.075339,17.6957837 C39.075339,14.4630849 41.2626821,12.4120263 44.0979407,12.4120263 C46.8402813,12.4120263 49.1079859,14.4654866 49.1079859,17.6957837 C49.1079859,20.8780466 46.8402813,22.8666607 44.0979407,22.8666607 Z" id="Shape" fill="#FFFFFF" fill-rule="nonzero"></path>
                <path d="M122.166042,22.7685771 C119.428151,22.7685771 117.175809,21.1921261 117.135135,18.4230133 L130.10008,18.4230133 C130.27015,17.6908745 130.355312,16.9430926 130.354295,16.1931731 C130.354295,11.1917668 126.772411,8 121.5,8 C115.864062,8 112,12.1925096 112,17.3833815 C112,23.1523664 116.186915,27 122.102489,27 C126.571581,27 129.670458,24.8454359 131,21.3063155 L126.591919,19.6618512 C125.98943,21.7313986 124.502275,22.7685771 122.166042,22.7685771 Z M121.482205,11.9617745 C123.770136,11.9617745 125.346267,13.1544362 125.346267,15.0005114 L125.305593,15.1535413 L117.130051,15.1535413 C117.618143,13.1544362 119.387477,11.9617745 121.482205,11.9617745 Z" id="Shape" fill="#FFFFFF" fill-rule="nonzero"></path>
                <path d="M66.178753,22.7685771 C63.4408617,22.7685771 61.1885202,21.1921261 61.1478459,18.4230133 L74.112791,18.4230133 C74.27981,17.6906073 74.3606503,16.9427039 74.3542949,16.1931731 C74.3542949,11.1917668 70.772411,8 65.5,8 C59.8640621,8 56,12.1925096 56,17.3833815 C56,23.1523664 60.1869146,27 66.1024886,27 C70.5715815,27 73.6704576,24.8454359 75,21.3063155 L70.6071715,19.6618512 C70.0021408,21.7313986 68.5124431,22.7685771 66.178753,22.7685771 Z M65.4949157,11.9617745 C67.7828472,11.9617745 69.3589778,13.1544362 69.3589778,15.0005114 L69.3183035,15.1535413 L61.1478459,15.1535413 C61.6308536,13.1544362 63.4027295,11.9617745 65.4949157,11.9617745 Z" id="Shape" fill="#FFFFFF" fill-rule="nonzero"></path>
                <polygon id="Path" fill="#29AB70" points="29 9 23 9 23 12 29 12"></polygon>
                <polygon id="Path" fill="url(#linearGradient-1)" points="29 13 23 13 23 16 29 16"></polygon>
                <polygon id="Path" fill="url(#linearGradient-2)" points="29 19 23 19 23 22 29 22"></polygon>
                <polygon id="Path" fill="url(#linearGradient-3)" points="6 23 0 23 0 26 6 26"></polygon>
                <polygon id="Path" fill="url(#linearGradient-4)" points="14 23 8 23 8 26 14 26"></polygon>
                <polygon id="Path" fill="url(#linearGradient-5)" points="21 23 15 23 15 26 21 26"></polygon>
                <polygon id="Path" fill="url(#linearGradient-6)" points="29 23 23 23 23 26 29 26"></polygon>
                <polygon id="Path" fill="url(#linearGradient-7)" points="21 19 15 19 15 22 21 22"></polygon>
                <polygon id="Path" fill="url(#linearGradient-8)" points="14 19 8 19 8 22 14 22"></polygon>
                <polygon id="Path" fill="url(#linearGradient-9)" points="14 13 8 13 8 16 14 16"></polygon>
                <path d="M85.1660423,22.7685771 C82.4281509,22.7685771 80.1758095,21.1921261 80.1351351,18.4230133 L93.1000803,18.4230133 C93.2698956,17.6908745 93.3553117,16.9430926 93.3542949,16.1931731 C93.3542949,11.1917668 89.772411,8 84.5,8 C78.8640621,8 75,12.1925096 75,17.3833815 C75,23.1523664 79.1869146,27 85.1024886,27 C89.5715815,27 92.6704576,24.8454359 94,21.3063155 L89.5944608,19.6618512 C88.98943,21.7313986 87.4997324,22.7685771 85.1660423,22.7685771 Z M84.482205,11.9617745 C86.7701365,11.9617745 88.3462671,13.1544362 88.3462671,15.0005114 L88.3055927,15.1535413 L80.1351351,15.1535413 C80.6181429,13.1544362 82.3900187,11.9617745 84.482205,11.9617745 Z" id="Shape" fill="#FFFFFF" fill-rule="nonzero"></path>
                <polygon id="Path" fill="#FFFFFF" points="110.721558 12.988541 110.721558 9 94.3185775 9 94.3185775 13.1780147 104.327431 13.1780147 94 22.8243837 94 27 111 27 111 22.6325117 100.353991 22.6325117"></polygon>
                <path d="M142.079151,14.0658049 C142.080655,14.3621387 142.059599,14.6582139 142.016485,14.9518214 L146.831717,14.9518214 C146.948777,14.3779083 147.004925,13.7945946 146.999662,13.2103408 C146.999662,10.1950646 144.976813,8 141.602892,8 C139.419619,8 137.873029,9.00585194 137.078428,10.6415746 L137.078428,8.37367803 L132,8.37367803 L132,26 L137.078428,26 L137.078428,14.6603995 C137.078428,12.8742656 138.111159,11.8707403 139.697854,11.8707403 C141.126632,11.8707403 142.079151,12.7638073 142.079151,14.0658049 Z" id="Path" fill="#FFFFFF"></path>
                <path d="M48.9121045,11.2952322 C47.7569061,9.43150685 45.6097438,8.21384095 42.9477649,8.21384095 C37.7769965,8.21384095 34,12.0181462 34,17.6837751 C34,23.2725494 37.739327,27 43.0657961,27 C45.7302863,27 47.8774485,25.8952144 49.1104972,24.0338908 L49.1104972,26.6181284 L54,26.6181284 L54,0 L48.9121045,0 L48.9121045,11.2952322 Z M44.0979407,22.8666607 C41.2752386,22.8666607 39.075339,20.8900552 39.075339,17.6957837 C39.075339,14.4630849 41.2626821,12.4120263 44.0979407,12.4120263 C46.8402813,12.4120263 49.1079859,14.4654866 49.1079859,17.6957837 C49.1079859,20.8780466 46.8402813,22.8666607 44.0979407,22.8666607 Z" id="Shape" fill="#FFFFFF" fill-rule="nonzero"></path>
                <path d="M122.166042,22.7685771 C119.428151,22.7685771 117.175809,21.1921261 117.135135,18.4230133 L130.10008,18.4230133 C130.27015,17.6908745 130.355312,16.9430926 130.354295,16.1931731 C130.354295,11.1917668 126.772411,8 121.5,8 C115.864062,8 112,12.1925096 112,17.3833815 C112,23.1523664 116.186915,27 122.102489,27 C126.571581,27 129.670458,24.8454359 131,21.3063155 L126.591919,19.6618512 C125.98943,21.7313986 124.502275,22.7685771 122.166042,22.7685771 Z M121.482205,11.9617745 C123.770136,11.9617745 125.346267,13.1544362 125.346267,15.0005114 L125.305593,15.1535413 L117.130051,15.1535413 C117.618143,13.1544362 119.387477,11.9617745 121.482205,11.9617745 Z" id="Shape" fill="#FFFFFF" fill-rule="nonzero"></path>
                <path d="M66.178753,22.7685771 C63.4408617,22.7685771 61.1885202,21.1921261 61.1478459,18.4230133 L74.112791,18.4230133 C74.27981,17.6906073 74.3606503,16.9427039 74.3542949,16.1931731 C74.3542949,11.1917668 70.772411,8 65.5,8 C59.8640621,8 56,12.1925096 56,17.3833815 C56,23.1523664 60.1869146,27 66.1024886,27 C70.5715815,27 73.6704576,24.8454359 75,21.3063155 L70.6071715,19.6618512 C70.0021408,21.7313986 68.5124431,22.7685771 66.178753,22.7685771 Z M65.4949157,11.9617745 C67.7828472,11.9617745 69.3589778,13.1544362 69.3589778,15.0005114 L69.3183035,15.1535413 L61.1478459,15.1535413 C61.6308536,13.1544362 63.4027295,11.9617745 65.4949157,11.9617745 Z" id="Shape" fill="#FFFFFF" fill-rule="nonzero"></path>
            </g>
        </g>
    </g>
</svg>