<?xml version="1.0" encoding="UTF-8"?>
<svg width="228px" height="43px" viewBox="0 0 228 43" version="1.1" xmlns="http://www.w3.org/2000/svg" xmlns:xlink="http://www.w3.org/1999/xlink">
    <!-- Generator: Sketch 52.4 (67378) - http://www.bohemiancoding.com/sketch -->
    <title>yt_music_full_rgb_white</title>
    <desc>Created with Sketch.</desc>
    <defs>
        <polygon id="path-1" points="0.327115385 0.0485526316 20.8291731 0.0485526316 20.8291731 29.7122368 0.327115385 29.7122368"></polygon>
        <polygon id="path-3" points="0.0241104294 0.170476704 130.922847 0.170476704 130.922847 42.122449 0.0241104294 42.122449"></polygon>
    </defs>
    <g id="Website3" stroke="none" stroke-width="1" fill="none" fill-rule="evenodd">
        <g id="11″-iPad-Pro" transform="translate(-505.000000, -1910.000000)">
            <g id="yt_music_full_rgb_white" transform="translate(505.000000, 1910.000000)">
                <path d="M164.984428,17.7153068 C164.114124,22.105352 163.452582,27.4626075 163.104781,29.6747383 L162.860759,29.6747383 C162.582278,27.3937768 161.921137,22.0703398 161.015973,17.7499211 L158.788125,7 L152,7 L152,36 L156.212075,36 L156.212075,12.0950624 L156.629597,14.3278821 L160.911392,36 L165.123869,36 L169.335543,14.3278821 L169.787524,12.0823307 L169.787524,26.4528255 L169.787925,36 L174,36 L174,7 L167.142555,7 L164.984428,17.7153068" id="Fill-1" fill="#FFFFFE"></path>
                <path d="M185.203219,32.1974207 C184.820725,33.0095708 183.98692,33.5745801 183.152314,33.5745801 C182.179675,33.5745801 181.797181,32.7977939 181.797181,30.8905826 L181.797181,15 L177,15 L177,31.1734937 C177,35.1635164 178.286317,37 181.136618,37 C183.082697,37 184.647482,36.1171221 185.724948,33.9985404 L185.828973,33.9985404 L186.246276,36.6467675 L190,36.6467675 L190,15 L185.203219,15 L185.203219,32.1974207" id="Fill-2" fill="#FFFFFE"></path>
                <path d="M199.636369,22.7244254 C198.10848,21.5864396 197.158141,20.8275178 197.158141,19.1723379 C197.158141,18.0002165 197.701304,17.3448923 198.991217,17.3448923 C200.315126,17.3448923 200.75669,18.2760798 200.790686,21.4483095 L204.728419,21.2760437 C205.033606,16.1378414 203.370122,14 199.05921,14 C195.053094,14 193.084032,15.8278425 193.084032,19.5863313 C193.084032,22.9998917 194.71391,24.551871 197.361729,26.5865117 C199.636369,28.3794248 200.960278,29.3796774 200.960278,30.8276621 C200.960278,31.9311154 200.28113,32.6896402 199.092815,32.6896402 C197.701304,32.6896402 196.88656,31.3452531 197.090148,29.0002165 L193.118419,29.0688846 C192.507264,33.448562 194.23835,36 198.855621,36 C202.895343,36 205,34.1038863 205,30.310468 C205,26.8623751 203.30291,25.4830585 199.636369,22.7244254" id="Fill-3" fill="#FFFFFE"></path>
                <polygon id="Fill-4" fill="#FFFFFE" points="208 36 212 36 212 15 208 15"></polygon>
                <g id="Group-8" transform="translate(207.000000, 6.000000)">
                    <mask id="mask-2" fill="white">
                        <use xlink:href="#path-1"></use>
                    </mask>
                    <g id="Clip-6"></g>
                    <path d="M2.95776923,0.0485526316 C1.16832692,0.0485526316 0.327115385,0.700263158 0.327115385,2.96368421 C0.327115385,5.29578947 1.16832692,5.87842105 2.95776923,5.87842105 C4.78234615,5.87842105 5.58923077,5.29578947 5.58923077,2.96368421 C5.58923077,0.802894737 4.78234615,0.0485526316 2.95776923,0.0485526316" id="Fill-5" fill="#FFFFFE" mask="url(#mask-2)"></path>
                    <path d="M20.81625,21.7906579 L16.5706154,21.585 C16.5706154,25.2888158 16.1498077,26.4888158 14.7113077,26.4888158 C13.2728077,26.4888158 13.0272692,25.1514474 13.0272692,20.7963158 L13.0272692,16.7151316 C13.0272692,12.4969737 13.3079423,11.1596053 14.7464423,11.1596053 C16.0795385,11.1596053 16.4304808,12.4282895 16.4304808,16.3381579 L20.6405769,16.0634211 C20.92125,12.8056579 20.5004423,10.5765789 19.2020769,9.30789474 C18.2546538,8.38184211 16.8165577,7.93618421 14.8163077,7.93618421 C10.1151346,7.93618421 8.18515385,10.4052632 8.18515385,17.3325 L8.18515385,20.2815789 C8.18515385,27.4148684 9.83446154,29.7122368 14.6410385,29.7122368 C16.6760192,29.7122368 18.0793846,29.3009211 19.0264038,28.4092105 C20.3950385,27.1744737 20.92125,25.0484211 20.81625,21.7906579" id="Fill-7" fill="#FFFFFE" mask="url(#mask-2)"></path>
                </g>
                <path d="M68.8782538,31.703748 C69.1387081,31.0107656 69.2695228,29.8795853 69.2695228,28.3082137 L69.2695228,21.6909888 C69.2695228,20.1670654 69.1387081,19.0526316 68.8782538,18.3480861 C68.6170161,17.6435407 68.1575982,17.2910686 67.5,17.2910686 C66.8643348,17.2910686 66.416275,17.6435407 66.1558207,18.3480861 C65.894583,19.0526316 65.7645517,20.1670654 65.7645517,21.6909888 L65.7645517,28.3082137 C65.7645517,29.8795853 65.8887081,31.0107656 66.1385876,31.703748 C66.3880754,32.3963317 66.8416185,32.742823 67.5,32.742823 C68.1575982,32.742823 68.6170161,32.3963317 68.8782538,31.703748 Z M63.6033683,35.0295056 C62.6614244,34.3835726 61.9920764,33.3783892 61.5957158,32.0155502 C61.1981803,30.6527113 61,28.8401116 61,26.5761563 L61,23.492823 C61,21.2061404 61.2263799,19.3700159 61.6803145,17.984051 C62.1342492,16.5984848 62.8427633,15.588118 63.8074235,14.9525518 C64.7713003,14.3177831 66.0363642,14 67.6018318,14 C69.144583,14 70.3810557,14.323764 71.3116414,14.9700957 C72.2414437,15.6168262 72.9217583,16.6275917 73.3533683,18.0011962 C73.784195,19.3759968 74,21.2061404 74,23.492823 L74,26.5761563 C74,28.8401116 73.7900699,30.6590909 73.3702097,32.0326954 C72.9503495,33.4070973 72.2696433,34.411882 71.3284828,35.0470494 C70.3865389,35.6822169 69.1105086,36 67.5,36 C65.8436671,36 64.5445288,35.676236 63.6033683,35.0295056 Z" id="Fill-9" fill="#FFFFFE"></path>
                <path d="M137.416394,17.6783808 C137.167872,17.9790888 137.001918,18.4706843 136.91935,19.1531675 C136.835964,19.8356508 136.795089,20.8703576 136.795089,22.2584861 L136.795089,23.7855872 L140.38231,23.7855872 L140.38231,22.2584861 C140.38231,20.893919 140.334486,19.8588129 140.240473,19.1531675 C140.145642,18.4475222 139.974374,17.9503358 139.725035,17.6608096 C139.476512,17.372082 139.091466,17.2271193 138.570714,17.2271193 C138.049962,17.2271193 137.665325,17.3780722 137.416394,17.6783808 Z M136.795089,26.6309312 L136.795089,27.7063714 C136.795089,29.0717372 136.835964,30.0956616 136.91935,30.7777455 C137.001918,31.4598294 137.173186,31.9574151 137.434788,32.2697041 C137.694755,32.5819931 138.096969,32.7381376 138.641838,32.7381376 C139.37555,32.7381376 139.878726,32.4601924 140.151365,31.9055001 C140.423186,31.3500091 140.571563,30.4251225 140.595271,29.1292431 L144.821783,29.3720457 C144.845491,29.5577419 144.857345,29.8121256 144.857345,30.1355963 C144.857345,32.1019786 144.306754,33.5707751 143.20598,34.5423852 C142.104798,35.5139953 140.547856,36 138.535153,36 C136.120236,36 134.42677,35.2596115 133.45598,33.7788346 C132.485191,32.2988564 132,30.0090034 132,26.908477 L132,23.1953531 C132,20.0033763 132.503176,17.67279 133.509527,16.2035941 C134.515879,14.7347976 136.238775,14 138.677399,14 C140.358603,14 141.648629,14.3011073 142.548705,14.9025231 C143.448371,15.503939 144.081531,16.440806 144.449,17.7127246 C144.815652,18.985442 145,20.7437647 145,22.9872935 L145,26.6309312 L136.795089,26.6309312 Z" id="Fill-10" fill="#FFFFFE"></path>
                <path d="M51.5575302,26.5978629 L46,7 L50.8494971,7 L52.7963845,15.8830226 C53.2921706,18.0724524 53.6575939,19.9388777 53.8938765,21.4822984 L54.0352387,21.4822984 C54.2002292,20.3764454 54.5660598,18.521556 55.1327307,15.9176303 L57.1505029,7 L62,7 L56.371585,26.5978629 L56.371585,36 L51.5575302,36 L51.5575302,26.5978629" id="Fill-11" fill="#FFFFFE"></path>
                <path d="M89,15 L89,36.6468263 L85.245769,36.6468263 L84.8285433,33.998633 L84.7249369,33.998633 C83.7044741,36.0002217 82.17518,37 80.1362545,37 C78.7229676,37 77.6797034,36.5293726 77.0084621,35.5877115 C76.3360207,34.6460504 76,33.1748319 76,31.1736496 L76,15 L80.7966952,15 L80.7966952,30.8911919 C80.7966952,31.856425 80.9011016,32.5452967 81.1099145,32.956994 C81.3183273,33.3690978 81.6655486,33.5751496 82.1523786,33.5751496 C82.5696043,33.5751496 82.9692289,33.4455036 83.3516524,33.1866179 C83.7340759,32.9277322 84.0172934,32.5985369 84.2033048,32.1974063 L84.2033048,15 L89,15" id="Fill-12" fill="#FFFFFE"></path>
                <path d="M115,15 L115,36.6468263 L111.245769,36.6468263 L110.828543,33.998633 L110.724937,33.998633 C109.704474,36.0002217 108.17518,37 106.136255,37 C104.722968,37 103.679703,36.5293726 103.008462,35.5877115 C102.336021,34.6460504 102,33.1748319 102,31.1736496 L102,15 L106.796695,15 L106.796695,30.8911919 C106.796695,31.856425 106.901102,32.5452967 107.109514,32.956994 C107.318327,33.3690978 107.665549,33.5751496 108.152379,33.5751496 C108.569604,33.5751496 108.969229,33.4455036 109.351652,33.1866179 C109.734076,32.9277322 110.017293,32.5985369 110.203305,32.1974063 L110.203305,15 L115,15" id="Fill-13" fill="#FFFFFE"></path>
                <polyline id="Fill-14" fill="#FFFFFE" points="103 10.8368313 98.3104846 10.8368313 98.3104846 36 93.6895154 36 93.6895154 10.8368313 89 10.8368313 89 7 103 7 103 10.8368313"></polyline>
                <g id="Group-18">
                    <mask id="mask-4" fill="white">
                        <use xlink:href="#path-3"></use>
                    </mask>
                    <g id="Clip-16"></g>
                    <path d="M126.069015,26.7763666 C126.069015,28.3193993 126.004721,29.5278367 125.876936,30.4020762 C125.74915,31.2771105 125.533362,31.8990127 125.230776,32.2665907 C124.928592,32.6353608 124.520724,32.8193485 124.008779,32.8193485 C123.612966,32.8193485 123.246488,32.7271559 122.909344,32.5431683 C122.571396,32.3587832 122.298546,32.082603 122.088785,31.7142303 L122.088785,19.6982056 C122.251129,19.1231945 122.53081,18.6511051 122.926623,18.282335 C123.322034,17.914757 123.752807,17.7299746 124.21854,17.7299746 C124.70758,17.7299746 125.08531,17.919923 125.353337,18.2998198 C125.620561,18.6793192 125.807015,19.3183088 125.911896,20.2163912 C126.016776,21.1136789 126.069015,22.3912607 126.069015,24.0487393 L126.069015,26.7763666 Z M130.486448,18.1428541 C130.194712,16.8084467 129.723353,15.8416173 129.071969,15.2427632 C128.420184,14.6443065 127.523678,14.3450782 126.383656,14.3450782 C125.498402,14.3450782 124.67262,14.5926469 123.904301,15.087387 C123.136383,15.5825245 122.542463,16.2326407 122.123745,17.0385306 L122.087982,17.0385306 L122.088785,5.88522141 L117.444715,5.88522141 L117.444715,35.925283 L121.425347,35.925283 L121.914387,33.9224798 L122.018865,33.9224798 C122.390969,34.6365745 122.949528,35.2000616 123.69454,35.6145306 C124.439552,36.0289996 125.265736,36.2364328 126.173896,36.2364328 C127.802957,36.2364328 129.002049,35.4937266 129.769966,34.009109 C130.538285,32.5244913 130.922847,30.2057697 130.922847,27.0513546 L130.922847,23.7022226 C130.922847,21.3318414 130.776577,19.4784536 130.486448,18.1428541 Z" id="Fill-15" fill="#FFFFFE" mask="url(#mask-4)"></path>
                    <path d="M21.2115521,42.122449 C32.9260061,42.122449 42.4227025,32.7311298 42.4227025,21.1466615 C42.4227025,9.56179592 32.9260061,0.170476704 21.2115521,0.170476704 C9.49669632,0.170476704 0,9.56179592 0,21.1466615 C0,32.7311298 9.49669632,42.122449 21.2115521,42.122449" id="Fill-17" fill="#D9252A" mask="url(#mask-4)"></path>
                </g>
                <path d="M21.500195,9 C14.5969742,9 9,14.5969742 9,21.500195 C9,28.4026359 14.5969742,34 21.500195,34 C28.4026359,34 34,28.4026359 34,21.500195 C34,14.5969742 28.4026359,9 21.500195,9 Z M21.500195,10.6614677 C27.4765655,10.6614677 32.3385323,15.5230445 32.3385323,21.500195 C32.3385323,27.4765655 27.4765655,32.3385323 21.500195,32.3385323 C15.5230445,32.3385323 10.6614677,27.4765655 10.6614677,21.500195 C10.6614677,15.5230445 15.5230445,10.6614677 21.500195,10.6614677 Z" id="Fill-19" fill="#FFFFFE"></path>
                <polyline id="Fill-20" fill="#FFFFFE" points="17 27 28 21 17 15 17 27"></polyline>
            </g>
        </g>
    </g>
</svg>